<svg xmlns="http://www.w3.org/2000/svg" xmlns:xlink="http://www.w3.org/1999/xlink" version="1.1" width="1280pt" height="720pt" viewBox="0 0 1280 720">
<defs>
<clipPath id="clip_0">
<path transform="matrix(1,0,0,-1,0,720)" d="M0 720H1280V0H0Z"/>
</clipPath>
</defs>
<g id="layer_1" data-name="Layer 1">
<g clip-path="url(#clip_0)">
<path transform="matrix(1,0,0,-1,651.541,327.4761)" d="M0 0 36.937 86.771H98.128C186.689 86.771 220.302 123.132 243.548 177.732 252.146 197.946 266.553 231.783 247.531 260.562 228.617 289.183 188.448 292.49 159.869 292.49H-165.392L-211.269 184.756H-152.402L-185.156 107.784H-244.155L-290.049 0Z"/>
<path transform="matrix(1,0,0,-1,657.1826,122.73932)" d="M0 0H98.568C112.15 0 110.209-6.816 108.426-11.04 103.376-22.863 91.27-30.204 76.855-30.204H-12.856ZM225.217 44.81C214.877 60.475 192.305 67.773 154.235 67.773H-157.811L-186.673 0H-127.807L-177.599-116.933H-236.582L-265.453-184.765H-18.848L10.04-116.933H-49.785L-41.719-97.994H92.494C178.815-97.994 201.837-60.716 219.518-19.189 229.033 3.175 237.298 26.529 225.217 44.81" fill="#9d9795"/>
<path transform="matrix(1,0,0,-1,734.0381,163.33301)" d="M0 0H-105.427L-83.722 50.967H21.713C40.369 50.967 47.893 41.376 41.118 25.479 34.361 9.598 18.663 0 0 0M77.38 97.96H-227.809L-247.814 50.967H-188.931L-247.572-86.729H-306.564L-326.594-133.772H-102.569L-82.547-86.729H-142.354L-125.432-46.993H15.639C96.502-46.993 116.832-12.74 133.105 25.479 149.386 63.715 158.243 97.96 77.38 97.96" fill="#cfb991"/>
<path transform="matrix(1,0,0,-1,188.7046,424.1885)" d="M0 0V-66.27L34.322-63.73C42.843-59.807 51.627-54.656 51.627-33.268 51.627-17.099 50.875 0 19.503 0ZM-32.676-.592-51.114 4.775V18.079H20.917C67.831 18.079 85.145 3.093 85.145-32.335 85.145-65.478 66.221-82.657 29.141-82.657H0V-135.73L18.67-141.098V-153.468H-51.582V-141.098L-32.676-135.73Z"/>
<path transform="matrix(1,0,0,-1,518.189,424.3145)" d="M0 0V-65.352L34.731-63.017C45.755-57.552 51.07-48.812 51.07-30.809 51.07-11.903 44.964 0 25.358 0ZM23.295-80.289H0V-135.604L18.67-140.972V-153.342H-51.582V-140.972L-32.676-135.604V-.466L-51.348 4.901V18.205H23.851C68.429 18.205 84.679 2.39 84.679-28.008 84.679-51.496 75.513-63.725 54.337-72.119L86.079-134.204 106.587-140.972V-153.342H58.771Z"/>
<path transform="matrix(1,0,0,-1,690.3545,424.3145)" d="M0 0V-135.604H24.562C41.423-135.604 70.491-132.869 70.491-70.952 70.491-22.173 61.73 0 24.562 0ZM-51.582-140.972-32.909-135.838V-.466L-51.348 4.901V18.205H31.564C78.478 18.205 105.857-10.078 105.857-65.694 105.857-128.627 77.47-153.342 27.988-153.342H-51.582Z"/>
<path transform="matrix(1,0,0,-1,209.7124,667.0303)" d="M0 0C0-20.853-12.06-28.519-31.818-28.519-51.664-28.519-63.636-16.827-63.636 0V41.807L-72.589 44.611V52.484H-36.024V44.611L-44.868 41.807V0C-44.868-10.786-40.729-16.654-28.974-16.654-23.228-16.654-13.481-14.86-13.481 .54V41.807L-22.434 44.611V52.484H8.953V44.611L0 41.807Z"/>
<path transform="matrix(1,0,0,-1,272.7681,645.502)" d="M0 0V-38.365L8.846-41.063V-48.86H-22.003V-41.063L-12.943-38.365V16.071L-16.788 20.91-22.137 22.579V30.956H-1.941L36.996-18.012V20.278L28.045 22.975V30.956H58.892V22.975L49.941 20.278V-48.969H39.477Z"/>
<path transform="matrix(1,0,0,-1,398.2344,683.8672)" d="M0 0 8.951-2.697V-10.495H-27.72V-2.697L-18.768 0V58.751L-27.72 61.448V69.321H8.951V61.448L0 58.751Z"/>
<path transform="matrix(1,0,0,-1,892.0957,683.8672)" d="M0 0 8.951-2.697V-10.495H-27.72V-2.697L-18.769 0V58.751L-27.72 61.448V69.321H8.951V61.448L0 58.751Z"/>
<path transform="matrix(1,0,0,-1,491.104,694.3623)" d="M0 0H-17.258L-42.605 69.139-51.557 71.943V79.816H-12.943V71.943L-22.003 69.139-5.178 19.954 11.972 69.139 3.021 71.943V79.816H34.408V71.943L25.455 69.139Z"/>
<path transform="matrix(1,0,0,-1,563.7178,625.22366)" d="M0 0-8.952 2.696V10.678H53.714L54.361-13.968H44.334L39.479 .107H18.768V-22.328H39.477V-33.653H18.768V-58.893H40.02L46.383-44.903H56.195L54.793-69.139H-8.952V-61.341L0-59.107Z"/>
<path transform="matrix(1,0,0,-1,687.9971,625.22366)" d="M0 0V-27.936L12.619-26.858C16.827-23.837 18.875-18.553 18.875-12.943 18.875-4.962 16.773 0 8.576 0ZM6.796-36.564H0V-58.644L8.951-61.341V-69.139H-27.72V-61.341L-18.768-58.644V0L-27.72 2.696V10.678H8.738C31.064 10.678 37.967 2.049 37.967-11.434 37.967-20.278 36.01-28.321 25.054-32.319L37.859-58.353 49.075-61.804V-69.139H22.11Z"/>
<path transform="matrix(1,0,0,-1,769.5605,669.5547)" d="M0 0H11.09L13.464-11.217C18.103-14.13 24.16-15.855 30.31-15.855 31.173-15.855 32.034-15.855 32.897-15.747 36.025-13.267 37.859-10.031 37.859-6.147 37.859 12.512-.323 4.207-.323 31.495-.323 44.008 11.11 55.979 30.093 55.979 36.996 55.979 44.655 54.038 51.772 50.479V29.446H41.303L37.528 42.82C33.753 44.438 28.476 45.41 24.593 45.41 23.837 45.41 23.19 45.41 22.436 45.302 18.877 42.82 17.15 39.692 17.15 35.918 17.15 19.954 55.01 25.671 55.01-1.079 55.01-15.532 41.958-25.887 24.377-25.887 16.827-25.887 6.688-23.405 .109-18.66Z"/>
<path transform="matrix(1,0,0,-1,964.3828,625.33206)" d="M0 0H-10.354L-15.112-14.236H-25.131V10.786H44.439V-14.236H34.578L29.986 0H18.768V-58.535L27.722-61.232V-69.03H-8.951V-61.232L0-58.535Z"/>
<path transform="matrix(1,0,0,-1,1071.4043,663.6221)" d="M0 0-20.925 38.398-29.877 41.203V49.076H8.737V41.203L-.323 38.398 12.836 12.403 26.103 38.398 17.15 41.203V49.076H48.646V41.203L39.691 38.398 18.659 .215V-20.245L27.612-22.942V-30.74H-9.061V-22.942L0-20.245Z"/>
<path transform="matrix(1,0,0,-1,1105.1572,527.9424)" d="M0 0-12.137-31.977H-65.858V29.74H-35.428L-31.504 12.456H-17.984V64.435H-31.504L-35.428 47.771H-65.858V103.628H-14.471L-4.669 70.486H13.825L12.657 121.833H-117.206V108.529L-98.768 103.162V-32.21L-117.439-37.344V-49.714H15.225L18.259 0Z"/>
<path transform="matrix(1,0,0,-1,433.457,518.66116)" d="M0 0C0-43.523-20.778-61.563-63.368-61.563-102.579-61.563-130.936-45.899-130.936-4.548V93.881L-149.608 99.248V112.552H-79.588V99.248L-98.26 93.881V-4.548C-98.26-29.288-86.824-40.154-59.516-40.154-40.674-40.154-23.339-29.112-23.339-2.273V93.881L-41.778 99.248V112.552H18.672V99.248L0 93.881Z"/>
<path transform="matrix(1,0,0,-1,954.5674,518.66116)" d="M0 0C0-43.523-20.778-61.563-63.368-61.563-102.579-61.563-130.936-45.899-130.936-4.548V93.881L-149.608 99.248V112.552H-79.588V99.248L-98.261 93.881V-4.548C-98.261-29.288-86.824-40.154-59.517-40.154-40.674-40.154-23.34-29.112-23.34-2.273V93.881L-41.778 99.248V112.552H18.672V99.248L0 93.881Z"/>
<path transform="matrix(1,0,0,-1,1141.7969,663.4648)" d="M0 0C-7.48 0-13.566-6.086-13.566-13.566-13.566-21.046-7.48-27.132 0-27.132 7.48-27.132 13.566-21.046 13.566-13.566 13.566-6.086 7.48 0 0 0M0-30.683C-9.438-30.683-17.117-23.004-17.117-13.566-17.117-4.128-9.438 3.551 0 3.551 9.438 3.551 17.117-4.128 17.117-13.566 17.117-23.004 9.438-30.683 0-30.683"/>
<path transform="matrix(1,0,0,-1,1139.6279,675.8535)" d="M0 0H2.881C4.748 0 5.485 .715 5.485 2.028 5.485 3.319 4.633 4.057 2.95 4.057H0ZM0-2.742V-9.104H-3.365V6.776H3.619C7.075 6.776 8.942 4.887 8.942 2.42 8.942 .3 7.79-.853 6.638-1.337 7.422-1.637 8.62-2.442 8.62-5.301V-6.084C8.62-7.145 8.62-8.366 8.851-9.104H5.578C5.301-8.412 5.255-7.214 5.255-5.531V-5.301C5.255-3.572 4.817-2.742 2.259-2.742Z"/>
</g>
</g>
</svg>
